<svg width="48" height="48" viewBox="0 0 48 48" fill="none" xmlns="http://www.w3.org/2000/svg">
<g filter="url(#filter0_d_126_4897)">
<path fill-rule="evenodd" clip-rule="evenodd" d="M29.8602 36.798C29.9746 36.651 30.1282 36.5394 30.3017 36.4719C36.7823 33.9486 41.375 27.6481 41.375 20.2749C41.375 10.679 33.5959 2.8999 24 2.8999C14.4041 2.8999 6.625 10.679 6.625 20.2749C6.625 27.6481 11.2176 33.9486 17.6983 36.4718C17.8718 36.5394 18.0254 36.651 18.1397 36.7979L23.2106 43.3177C23.611 43.8324 24.389 43.8324 24.7893 43.3177L29.8602 36.798Z" fill="#95BF3D"/>
</g>
<path fill-rule="evenodd" clip-rule="evenodd" d="M29.576 34.6081C35.3141 32.374 39.375 26.7962 39.375 20.2749C39.375 11.7835 32.4914 4.8999 24 4.8999C15.5086 4.8999 8.625 11.7835 8.625 20.2749C8.625 26.7962 12.6858 32.374 18.4239 34.6081C18.9174 34.8003 19.3717 35.1243 19.7184 35.5701L24 41.0749L28.2815 35.5701C28.6283 35.1243 29.0826 34.8003 29.576 34.6081ZM30.3017 36.4719C30.1282 36.5394 29.9746 36.651 29.8602 36.798L24.7893 43.3177C24.389 43.8324 23.611 43.8324 23.2106 43.3177L18.1397 36.7979C18.0254 36.651 17.8718 36.5394 17.6983 36.4718C11.2176 33.9486 6.625 27.6481 6.625 20.2749C6.625 10.679 14.4041 2.8999 24 2.8999C33.5959 2.8999 41.375 10.679 41.375 20.2749C41.375 27.6481 36.7823 33.9486 30.3017 36.4719Z" fill="white"/>
<circle cx="24" cy="20.75" r="7" fill="white"/>
<defs>
<filter id="filter0_d_126_4897" x="3.625" y="0.899902" width="40.75" height="46.8037" filterUnits="userSpaceOnUse" color-interpolation-filters="sRGB">
<feFlood flood-opacity="0" result="BackgroundImageFix"/>
<feColorMatrix in="SourceAlpha" type="matrix" values="0 0 0 0 0 0 0 0 0 0 0 0 0 0 0 0 0 0 127 0" result="hardAlpha"/>
<feOffset dy="1"/>
<feGaussianBlur stdDeviation="1.5"/>
<feComposite in2="hardAlpha" operator="out"/>
<feColorMatrix type="matrix" values="0 0 0 0 0 0 0 0 0 0 0 0 0 0 0 0 0 0 0.18 0"/>
<feBlend mode="normal" in2="BackgroundImageFix" result="effect1_dropShadow_126_4897"/>
<feBlend mode="normal" in="SourceGraphic" in2="effect1_dropShadow_126_4897" result="shape"/>
</filter>
</defs>
</svg>
