<svg width="80" height="14" viewBox="0 0 80 14" fill="none" xmlns="http://www.w3.org/2000/svg">
<path d="M4.12444 2.45241C4.31538 2.45241 4.39176 2.56828 4.39176 2.74207V6.99035C4.39176 7.20276 4.33448 7.28 4.12444 7.28H2.76872V2.45241H4.12444ZM7.12229 1.81517C7.12229 0.714483 6.54945 0 5.25102 0H0V14H2.76872V9.53931H3.13152L4.46814 14H7.33233L5.88114 9.53931C6.68311 9.53931 7.12229 8.92138 7.12229 8.30345V1.81517Z" fill="#E93656"/>
<path d="M8.29795 14H13.5681L14.0454 11.3931H11.143V8.34207H13.4344V5.92828H11.143V2.6069H14.16L13.6826 0H8.29795V14Z" fill="#E93656"/>
<path d="M19.1899 2.45241C19.3809 2.45241 19.4382 2.54896 19.4382 2.72276V11.2579C19.4382 11.4703 19.4 11.5476 19.1708 11.5476H17.8724V2.45241H19.1899ZM22.1878 1.69931C22.1878 0.675861 21.634 0 20.5457 0H15.1228V14H20.0301C21.615 14 22.1878 13.3821 22.1878 11.8372V1.69931Z" fill="#E93656"/>
<path d="M29.8579 2.45241C30.0488 2.45241 30.1061 2.54896 30.1061 2.72276V7.66621C30.1061 7.87862 30.0679 7.95586 29.8388 7.95586H28.4639V2.45241H29.8579ZM25.7143 0V14H28.4639V10.2731H30.8317C32.3783 10.2731 32.7984 9.46207 32.7984 8.4V1.69931C32.7984 0.675861 32.2447 0 31.1563 0H25.7143Z" fill="white"/>
<path d="M38.0062 2.45241C38.1971 2.45241 38.2544 2.54896 38.2544 2.72276V11.2579C38.2544 11.4703 38.2162 11.5476 37.9871 11.5476H36.9369C36.7077 11.5476 36.6696 11.4703 36.6696 11.2579V2.72276C36.6696 2.54896 36.7268 2.45241 36.9178 2.45241H38.0062ZM41.0613 1.81517C41.0613 0.714483 40.4885 0 39.19 0H35.753C34.4546 0 33.8817 0.714483 33.8817 1.81517V12.011C33.8817 13.0731 34.3209 14 35.8676 14H39.0755C40.6221 14 41.0613 13.0731 41.0613 12.011V1.81517Z" fill="white"/>
<path d="M46.6283 12.9959L48.385 7.39586V14H51.0773V0H48.1368L46.6283 5.90897L45.1198 0H42.1983V14H44.8907V7.39586L46.6283 12.9959Z" fill="white"/>
<path d="M52.2305 14H54.9992V0H52.2305V14Z" fill="white"/>
<path d="M60.2135 2.45241C60.4045 2.45241 60.4617 2.54896 60.4617 2.72276V11.2579C60.4617 11.4703 60.4236 11.5476 60.1944 11.5476H58.896V2.45241H60.2135ZM63.2114 1.69931C63.2114 0.675861 62.6576 0 61.5692 0H56.1464V14H61.0537C62.6385 14 63.2114 13.3821 63.2114 11.8372V1.69931Z" fill="white"/>
<path d="M68.4755 2.45241C68.6665 2.45241 68.7237 2.54896 68.7237 2.72276V11.2579C68.7237 11.4703 68.6855 11.5476 68.4564 11.5476H67.4062C67.1771 11.5476 67.1389 11.4703 67.1389 11.2579V2.72276C67.1389 2.54896 67.1962 2.45241 67.3871 2.45241H68.4755ZM71.5306 1.81517C71.5306 0.714483 70.9578 0 69.6594 0H66.2223C64.9239 0 64.3511 0.714483 64.3511 1.81517V12.011C64.3511 13.0731 64.7902 14 66.3369 14H69.5448C71.0915 14 71.5306 13.0731 71.5306 12.011V1.81517Z" fill="white"/>
<path d="M76.7921 2.45241C76.9831 2.45241 77.0594 2.56828 77.0594 2.74207V6.99035C77.0594 7.20276 77.0022 7.28 76.7921 7.28H75.4364V2.45241H76.7921ZM79.79 1.81517C79.79 0.714483 79.2171 0 77.9187 0H72.6677V14H75.4364V9.53931H75.7992L77.1358 14H80L78.5488 9.53931C79.3508 9.53931 79.79 8.92138 79.79 8.30345V1.81517Z" fill="white"/>
</svg>
