<?xml version="1.0" encoding="utf-8"?><svg xmlns="http://www.w3.org/2000/svg" xmlns:xlink="http://www.w3.org/1999/xlink"><symbol viewBox="0 0 24 24" id="arrow-left" xmlns="http://www.w3.org/2000/svg"><path d="M19 12H5m6-6-6 6 6 6"/></symbol><symbol viewBox="0 0 24 24" id="arrow-right" xmlns="http://www.w3.org/2000/svg"><path d="M5 12h14m-6-6 6 6-6 6"/></symbol><symbol viewBox="0 0 24 24" id="arrow-up" xmlns="http://www.w3.org/2000/svg"><path fill-rule="evenodd" clip-rule="evenodd" d="M5.232 10.64a1 1 0 0 0 1.408.128L11 7.135V19a1 1 0 0 0 2 0V7.135l4.36 3.633a1 1 0 1 0 1.28-1.536l-6-5c-.047-.04-.103-.059-.155-.089-.041-.024-.077-.052-.122-.07A.992.992 0 0 0 12 4a.992.992 0 0 0-.363.073c-.045.018-.081.046-.122.07-.052.03-.108.05-.155.09l-6 5a1 1 0 0 0-.128 1.407"/></symbol><symbol viewBox="0 0 24 24" id="basket" xmlns="http://www.w3.org/2000/svg"><path fill-rule="evenodd" clip-rule="evenodd" d="M19 19.5a1.5 1.5 0 1 1-3 0 1.5 1.5 0 0 1 3 0Zm-10 0a1.5 1.5 0 1 1-3 0 1.5 1.5 0 0 1 3 0Zm7.382-5.5H8.764L7.127 8h12.255l-3 6Zm4.701-7.052A1.986 1.986 0 0 0 19.382 6h-12.8l-.617-2.263A1 1 0 0 0 5 3H3a1 1 0 1 0 0 2h1.236l2.799 10.263A1 1 0 0 0 8 16h9c.379 0 .725-.214.895-.553l3.276-6.553a1.988 1.988 0 0 0-.088-1.946Z"/></symbol><symbol viewBox="0 0 24 24" id="check" xmlns="http://www.w3.org/2000/svg"><path d="m9.64 17.806-4.454-4.699a.687.687 0 0 1 0-.94l.9-.94a.619.619 0 0 1 .9 0l3.106 3.29 6.922-7.323a.619.619 0 0 1 .9 0l.9.94a.684.684 0 0 1 0 .938l-8.273 8.734a.62.62 0 0 1-.9 0Z"/></symbol><symbol viewBox="0 0 32 24" id="check-lg" xmlns="http://www.w3.org/2000/svg"><path fill-rule="evenodd" clip-rule="evenodd" d="m10.336 18.91-7.302-7.334L.6 14.021l9.736 9.779L31.2 2.845 28.766.4l-18.43 18.51Z"/></symbol><symbol viewBox="0 0 20 20" id="chevron-down-dd" xmlns="http://www.w3.org/2000/svg"><path d="m6 8.5 4 4 4-4"/></symbol><symbol viewBox="0 0 20 20" id="chevron-left" xmlns="http://www.w3.org/2000/svg"><path d="m11.5 6-4 4 4 4"/></symbol><symbol viewBox="0 0 20 20" id="chevron-right" xmlns="http://www.w3.org/2000/svg"><path d="m8 15 5-5-5-5"/></symbol><symbol viewBox="0 0 25 24" id="chevronLeft" xmlns="http://www.w3.org/2000/svg"><path d="m15.5 19-7-7 7-7"/></symbol><symbol viewBox="0 0 25 24" id="chevronRight" xmlns="http://www.w3.org/2000/svg"><path d="m9.5 5 7 7-7 7"/></symbol><symbol viewBox="0 0 24 24" id="close" xmlns="http://www.w3.org/2000/svg"><path fill-rule="evenodd" clip-rule="evenodd" d="m13.414 12 4.293-4.293a.999.999 0 1 0-1.414-1.414L12 10.586 7.707 6.293a.999.999 0 1 0-1.414 1.414L10.586 12l-4.293 4.293a.999.999 0 1 0 1.414 1.414L12 13.414l4.293 4.293a.997.997 0 0 0 1.414 0 .999.999 0 0 0 0-1.414L13.414 12Z"/></symbol><symbol viewBox="0 0 24 24" id="compare" xmlns="http://www.w3.org/2000/svg"><path fill-rule="evenodd" clip-rule="evenodd" d="M12 4c-.55 0-1 .45-1 1v15c0 .55.45 1 1 1s1-.45 1-1V5c0-.55-.45-1-1-1Zm7 8c-.55 0-1 .45-1 1v7c0 .55.45 1 1 1s1-.45 1-1v-7c0-.55-.45-1-1-1ZM4 9c0-.55.45-1 1-1s1 .45 1 1v11c0 .55-.45 1-1 1s-1-.45-1-1V9Z"/></symbol><symbol viewBox="0 0 24 24" id="dots" xmlns="http://www.w3.org/2000/svg"><path fill-rule="evenodd" clip-rule="evenodd" d="M3 12a2 2 0 1 1 4.001.001A2 2 0 0 1 3 12Zm9-2a2 2 0 1 0 .001 4.001A2 2 0 0 0 12 10Zm7 0a2 2 0 1 0 .001 4.001A2 2 0 0 0 19 10Z"/></symbol><symbol viewBox="0 0 24 24" id="fb" xmlns="http://www.w3.org/2000/svg"><path d="M13.397 20.997v-8.196h2.765l.411-3.209h-3.176V7.548c0-.926.258-1.56 1.587-1.56h1.684v-2.86A22.108 22.108 0 0 0 14.201 3c-2.444 0-4.122 1.492-4.122 4.231v2.355H7.332v3.21h2.753v8.201h3.312Z"/></symbol><symbol viewBox="0 0 25 24" id="filters" xmlns="http://www.w3.org/2000/svg"><path fill-rule="evenodd" clip-rule="evenodd" d="M16 4a1 1 0 1 0-2 0v4a1 1 0 1 0 2 0V7h4a1 1 0 1 0 0-2h-4V4ZM4.5 5a1 1 0 0 0 0 2H11a1 1 0 1 0 0-2H4.5Zm6.5 7a1 1 0 0 1 1-1h8a1 1 0 1 1 0 2h-8a1 1 0 0 1-1-1Zm-7.5 6a1 1 0 0 1 1-1H8a1 1 0 1 1 0 2H4.5a1 1 0 0 1-1-1Zm1-7a1 1 0 1 0 0 2h2.499v1a1 1 0 1 0 2 0v-4a1 1 0 0 0-2 0v1H4.5Zm8.499 9v-1H20a1 1 0 1 0 0-2h-7.001v-1a1 1 0 1 0-2 0v4a1 1 0 1 0 2 0Z"/></symbol><symbol viewBox="0 0 32 32" id="grid" xmlns="http://www.w3.org/2000/svg"><path fill-rule="evenodd" clip-rule="evenodd" d="M9.243 6A3.243 3.243 0 0 0 6 9.244v2.612A3.243 3.243 0 0 0 9.243 15.1h2.613a3.243 3.243 0 0 0 3.243-3.243V9.244A3.243 3.243 0 0 0 11.856 6H9.243Zm-1.08 3.244a1.08 1.08 0 0 1 1.08-1.081h2.613c.597 0 1.08.484 1.08 1.08v2.613a1.08 1.08 0 0 1-1.08 1.081H9.243a1.081 1.081 0 0 1-1.08-1.08V9.243Zm1.08 7.656A3.243 3.243 0 0 0 6 20.145v2.613A3.243 3.243 0 0 0 9.243 26h2.613a3.243 3.243 0 0 0 3.243-3.243v-2.613a3.243 3.243 0 0 0-3.243-3.243H9.243Zm-1.08 3.244a1.08 1.08 0 0 1 1.08-1.081h2.613c.597 0 1.08.484 1.08 1.081v2.613a1.08 1.08 0 0 1-1.08 1.08H9.243a1.081 1.081 0 0 1-1.08-1.08v-2.613Zm8.738-10.9A3.243 3.243 0 0 1 20.144 6h2.613A3.243 3.243 0 0 1 26 9.244v2.612a3.243 3.243 0 0 1-3.243 3.243h-2.613a3.243 3.243 0 0 1-3.243-3.243V9.244Zm3.243-1.081a1.08 1.08 0 0 0-1.08 1.08v2.613a1.08 1.08 0 0 0 1.08 1.081h2.613a1.08 1.08 0 0 0 1.08-1.08V9.243a1.08 1.08 0 0 0-1.08-1.081h-2.613Zm0 8.737a3.243 3.243 0 0 0-3.243 3.244v2.613A3.243 3.243 0 0 0 20.144 26h2.613A3.243 3.243 0 0 0 26 22.757v-2.613a3.243 3.243 0 0 0-3.243-3.243h-2.613Zm-1.08 3.244a1.08 1.08 0 0 1 1.08-1.081h2.613c.597 0 1.08.484 1.08 1.081v2.613a1.08 1.08 0 0 1-1.08 1.08h-2.613a1.081 1.081 0 0 1-1.08-1.08v-2.613Z"/></symbol><symbol viewBox="0 0 24 24" id="heart" xmlns="http://www.w3.org/2000/svg"><path fill-rule="evenodd" clip-rule="evenodd" d="M7.22 6c-.864 0-1.674.334-2.28.941a3.241 3.241 0 0 0 0 4.573L12 18.585l7.06-7.071a3.24 3.24 0 0 0 0-4.573c-1.212-1.215-3.348-1.213-4.56 0l-1.792 1.795a1.028 1.028 0 0 1-1.416 0L9.5 6.94A3.2 3.2 0 0 0 7.22 6ZM12 21a.994.994 0 0 1-.707-.294l-7.768-7.78a5.245 5.245 0 0 1 0-7.399A5.19 5.19 0 0 1 7.22 4c1.399 0 2.712.543 3.695 1.527L12 6.614l1.085-1.086A5.187 5.187 0 0 1 16.78 4a5.19 5.19 0 0 1 3.694 1.527 5.244 5.244 0 0 1 0 7.399l-7.767 7.781A1 1 0 0 1 12 21Z"/></symbol><symbol viewBox="0 0 24 24" id="instagram" xmlns="http://www.w3.org/2000/svg"><path d="M11.999 7.377a4.624 4.624 0 1 0 0 9.248 4.624 4.624 0 0 0 0-9.248Zm0 7.627a3.004 3.004 0 1 1 0-6.008 3.004 3.004 0 0 1 0 6.008Zm4.807-6.719a1.078 1.078 0 1 0 0-2.156 1.078 1.078 0 0 0 0 2.156Z"/><path d="M20.533 6.11A4.605 4.605 0 0 0 17.9 3.48a6.607 6.607 0 0 0-2.186-.42c-.963-.042-1.268-.054-3.71-.054s-2.755 0-3.71.054a6.554 6.554 0 0 0-2.184.42 4.6 4.6 0 0 0-2.633 2.63 6.585 6.585 0 0 0-.419 2.186c-.043.962-.056 1.267-.056 3.71 0 2.442 0 2.753.056 3.71.015.748.156 1.486.419 2.187a4.61 4.61 0 0 0 2.634 2.632 6.583 6.583 0 0 0 2.185.45c.963.042 1.268.055 3.71.055s2.755 0 3.71-.055a6.616 6.616 0 0 0 2.186-.42 4.613 4.613 0 0 0 2.633-2.632c.263-.7.404-1.438.419-2.186.043-.962.056-1.267.056-3.71s0-2.753-.056-3.71a6.583 6.583 0 0 0-.421-2.217Zm-1.218 9.533a5.046 5.046 0 0 1-.311 1.688 2.987 2.987 0 0 1-1.712 1.71c-.535.2-1.1.305-1.67.312-.95.044-1.218.055-3.654.055-2.438 0-2.687 0-3.655-.055a4.961 4.961 0 0 1-1.67-.311 2.984 2.984 0 0 1-1.718-1.711 5.08 5.08 0 0 1-.311-1.67c-.043-.95-.053-1.217-.053-3.653 0-2.437 0-2.686.053-3.655a5.038 5.038 0 0 1 .311-1.687c.305-.79.93-1.41 1.719-1.712a5.01 5.01 0 0 1 1.669-.311c.95-.043 1.218-.055 3.655-.055s2.687 0 3.654.055a4.96 4.96 0 0 1 1.67.31 2.99 2.99 0 0 1 1.712 1.713 5.06 5.06 0 0 1 .311 1.669c.043.95.054 1.218.054 3.655 0 2.436 0 2.698-.043 3.654h-.011v-.001Z"/></symbol><symbol viewBox="0 0 24 24" id="like" xmlns="http://www.w3.org/2000/svg"><path fill-rule="evenodd" clip-rule="evenodd" d="M7.22 6c-.864 0-1.674.334-2.28.941a3.241 3.241 0 0 0 0 4.573L12 18.585l7.06-7.071a3.24 3.24 0 0 0 0-4.573c-1.212-1.215-3.348-1.213-4.56 0l-1.792 1.795a1.028 1.028 0 0 1-1.416 0L9.5 6.94A3.2 3.2 0 0 0 7.22 6ZM12 21a.994.994 0 0 1-.707-.294l-7.768-7.78a5.245 5.245 0 0 1 0-7.399A5.19 5.19 0 0 1 7.22 4c1.399 0 2.712.543 3.695 1.527L12 6.614l1.085-1.086A5.187 5.187 0 0 1 16.78 4a5.19 5.19 0 0 1 3.694 1.527 5.244 5.244 0 0 1 0 7.399l-7.767 7.781A1 1 0 0 1 12 21Z"/></symbol><symbol viewBox="0 0 24 24" id="map-pin" xmlns="http://www.w3.org/2000/svg"><path d="M12 13a3 3 0 1 0 0-6 3 3 0 0 0 0 6Z"/><path d="M12 21s7-4.846 7-11.077a6.885 6.885 0 0 0-2.05-4.895A7.04 7.04 0 0 0 12 3a7.04 7.04 0 0 0-4.95 2.028A6.885 6.885 0 0 0 5 9.923C5 16.153 12 21 12 21Z"/></symbol><symbol viewBox="0 0 24 24" id="menu-small" xmlns="http://www.w3.org/2000/svg"><path fill-rule="evenodd" clip-rule="evenodd" d="M15 19v-4h4l.001 4H15Zm4-6h-4c-1.103 0-2 .897-2 2v4c0 1.103.897 2 2 2h4c1.103 0 2-.897 2-2v-4c0-1.103-.897-2-2-2ZM5 19v-4h4l.001 4H5Zm4-6H5c-1.103 0-2 .897-2 2v4c0 1.103.897 2 2 2h4c1.103 0 2-.897 2-2v-4c0-1.103-.897-2-2-2Zm6-4V5h4l.001 4H15Zm4-6h-4c-1.103 0-2 .897-2 2v4c0 1.103.897 2 2 2h4c1.103 0 2-.897 2-2V5c0-1.103-.897-2-2-2ZM5 9V5h4l.001 4H5Zm4-6H5c-1.103 0-2 .897-2 2v4c0 1.103.897 2 2 2h4c1.103 0 2-.897 2-2V5c0-1.103-.897-2-2-2Z"/></symbol><symbol viewBox="0 0 24 24" id="menu-toggle" xmlns="http://www.w3.org/2000/svg"><path fill-rule="evenodd" clip-rule="evenodd" d="M3.948 6h16.104c.521 0 .948.427.948.949v.102a.952.952 0 0 1-.948.949H3.948A.95.95 0 0 1 3 7.051v-.102A.95.95 0 0 1 3.948 6Zm16.104 5H3.948a.95.95 0 0 0-.948.949v.102a.95.95 0 0 0 .948.949h16.104a.952.952 0 0 0 .948-.949v-.102a.952.952 0 0 0-.948-.949Zm0 5H3.948a.95.95 0 0 0-.948.949v.102a.95.95 0 0 0 .948.949h16.104a.952.952 0 0 0 .948-.949v-.102a.952.952 0 0 0-.948-.949Z"/></symbol><symbol viewBox="0 0 24 24" id="message" xmlns="http://www.w3.org/2000/svg"><path fill-rule="evenodd" clip-rule="evenodd" d="M7 11a1 1 0 1 1 2.001 0 1 1 0 0 1-2 0Zm5-1a1 1 0 1 0 .001 2 1 1 0 0 0 0-2Zm4 0a1 1 0 1 0 .001 2 1 1 0 0 0 0-2Zm3.899 2.294c-.507 3.254-3.13 5.953-6.38 6.562a8.003 8.003 0 0 1-4.616-.487 3.215 3.215 0 0 0-1.253-.262c-.19 0-.378.018-.563.055l-2.812.562.563-2.817c.118-.585.046-1.21-.207-1.81a8.01 8.01 0 0 1-.487-4.617c.609-3.249 3.307-5.872 6.562-6.379 2.59-.403 5.123.413 6.95 2.241 1.83 1.83 2.647 4.363 2.243 6.952Zm-.827-8.366c-2.285-2.284-5.445-3.303-8.674-2.804-4.077.636-7.457 3.92-8.22 7.987a10.008 10.008 0 0 0 .61 5.765c.098.231.128.446.09.64l-.858 4.287a.997.997 0 0 0 .274.903.996.996 0 0 0 .903.274l4.283-.857a1.15 1.15 0 0 1 .643.088 10.02 10.02 0 0 0 5.765.611c4.068-.763 7.352-4.143 7.988-8.22.502-3.227-.52-6.389-2.804-8.674Z"/></symbol><symbol viewBox="0 0 24 24" id="minus" xmlns="http://www.w3.org/2000/svg"><path fill-rule="evenodd" clip-rule="evenodd" d="M19 13H5a1 1 0 1 1 0-2h14a1 1 0 1 1 0 2Z"/></symbol><symbol viewBox="0 0 24 24" id="navigation" xmlns="http://www.w3.org/2000/svg"><path fill-rule="evenodd" clip-rule="evenodd" d="m7.866 9.099 5.198 1.057a.996.996 0 0 1 .781.78l1.056 5.198L18.42 5.58 7.866 9.099Zm6.801 11.9-.06-.001a1 1 0 0 1-.92-.798l-1.67-8.217-8.216-1.67a.999.999 0 0 1-.118-1.928l16-5.333a1.002 1.002 0 0 1 1.266 1.265l-5.334 16a1 1 0 0 1-.948.683Z"/></symbol><symbol viewBox="0 0 12 21" id="ok" xmlns="http://www.w3.org/2000/svg"><path fill-rule="evenodd" clip-rule="evenodd" d="M8.163 14.935a10.246 10.246 0 0 0 3.104-1.242 1.48 1.48 0 0 0 .491-2.085 1.6 1.6 0 0 0-2.16-.475 6.995 6.995 0 0 1-7.198 0 1.599 1.599 0 0 0-2.16.475 1.481 1.481 0 0 0 .491 2.085 10.246 10.246 0 0 0 3.104 1.242L.846 17.819a1.475 1.475 0 0 0 0 2.14c.299.285.696.443 1.11.441a1.6 1.6 0 0 0 1.108-.441L6 17.123l2.938 2.836a1.604 1.604 0 0 0 2.214 0 1.472 1.472 0 0 0 0-2.14l-2.989-2.884Zm3.17-9.373c0 2.845-2.397 5.16-5.346 5.16-2.949 0-5.347-2.315-5.347-5.16C.64 2.714 3.04.4 5.987.4c2.947 0 5.346 2.315 5.346 5.162Zm-3.136 0c0-1.18-.992-2.136-2.215-2.136-1.219 0-2.212.957-2.212 2.136 0 1.177.992 2.136 2.212 2.136 1.221 0 2.215-.96 2.215-2.136Z"/></symbol><symbol viewBox="0 0 24 24" id="phone-call" xmlns="http://www.w3.org/2000/svg"><path fill-rule="evenodd" clip-rule="evenodd" d="M19.2 16.86c0-.1-.006-.199-.019-.295l-4.159-.955-.256.49c-.41.784-.703 1.353-1.465 1.047-2.975-1.044-5.404-3.473-6.462-6.485-.321-.706.29-1.026 1.067-1.432l.483-.253-.954-4.158A2.343 2.343 0 0 0 4.8 7.139c0 6.65 5.41 12.061 12.06 12.061 1.29 0 2.34-1.049 2.34-2.34Zm1.743-.685A4.145 4.145 0 0 1 16.86 21C9.219 21 3 14.782 3 7.139a4.144 4.144 0 0 1 5.482-3.916.899.899 0 0 1 .582.65l1.233 5.367a.897.897 0 0 1-.228.824c-.122.13-.125.132-1.241.715a8.956 8.956 0 0 0 4.391 4.396c.586-1.117.589-1.12.716-1.244a.907.907 0 0 1 .825-.228l5.368 1.232c.302.07.548.29.649.583.073.211.13.432.166.657ZM12.9 4.8c3.473 0 6.3 2.826 6.3 6.3a.9.9 0 1 0 1.8 0C21 6.633 17.367 3 12.9 3a.9.9 0 1 0 0 1.8ZM12 7.5a.9.9 0 0 1 .9-.9c2.481 0 4.5 2.02 4.5 4.5a.9.9 0 1 1-1.8 0c0-1.489-1.211-2.7-2.7-2.7a.9.9 0 0 1-.9-.9Z"/></symbol><symbol viewBox="0 0 24 24" id="plus" xmlns="http://www.w3.org/2000/svg"><path fill-rule="evenodd" clip-rule="evenodd" d="M19 11h-6V5a1 1 0 1 0-2 0v6H5a1 1 0 1 0 0 2h6v6a1 1 0 1 0 2 0v-6h6a1 1 0 1 0 0-2Z"/></symbol><symbol viewBox="0 0 32 32" id="row" xmlns="http://www.w3.org/2000/svg"><path d="M7.16 6a1.16 1.16 0 1 0 0 2.319h1.964a1.16 1.16 0 1 0 0-2.319H7.16Zm7.857 0a1.16 1.16 0 0 0 0 2.319h9.824a1.16 1.16 0 0 0 0-2.319h-9.824Zm-1.159 7.053c0-.64.52-1.16 1.16-1.16h9.823a1.16 1.16 0 0 1 0 2.32h-9.824a1.16 1.16 0 0 1-1.159-1.16ZM7.16 11.894a1.16 1.16 0 1 0 0 2.319h1.964a1.16 1.16 0 0 0 0-2.32H7.16Zm6.698 7.053c0-.64.52-1.16 1.16-1.16h9.823a1.16 1.16 0 0 1 0 2.32h-9.824a1.16 1.16 0 0 1-1.159-1.16ZM7.16 17.788a1.16 1.16 0 0 0 0 2.319h1.964a1.16 1.16 0 1 0 0-2.32H7.16Zm6.698 7.053c0-.64.52-1.16 1.16-1.16h9.823a1.16 1.16 0 0 1 0 2.32h-9.824a1.16 1.16 0 0 1-1.159-1.16ZM7.16 23.682a1.16 1.16 0 0 0 0 2.319h1.964a1.16 1.16 0 1 0 0-2.32H7.16Z"/></symbol><symbol viewBox="0 0 24 24" id="search" xmlns="http://www.w3.org/2000/svg"><path fill-rule="evenodd" clip-rule="evenodd" d="M5 11c0-3.309 2.691-6 6-6s6 2.691 6 6-2.691 6-6 6-6-2.691-6-6Zm15.707 8.293-3.395-3.396A7.952 7.952 0 0 0 19 11c0-4.411-3.589-8-8-8s-8 3.589-8 8 3.589 8 8 8a7.952 7.952 0 0 0 4.897-1.688l3.396 3.395a.997.997 0 0 0 1.414 0 .999.999 0 0 0 0-1.414Z"/></symbol><symbol viewBox="0 0 24 24" id="share" xmlns="http://www.w3.org/2000/svg"><path fill-rule="evenodd" clip-rule="evenodd" d="M13.546 11.5c-3.563 0-6.777 1.634-8.81 4.259C5.671 11.89 9.266 9 13.546 9a1 1 0 0 0 1-1V6.077l4.824 4.174-4.824 4.212V12.5a1 1 0 0 0-1-1ZM3.78 21a1 1 0 0 0 .972-.763c.89-3.649 4.021-6.285 7.795-6.684v1.121c0 .706.42 1.335 1.093 1.64a2.032 2.032 0 0 0 2.177-.304l5.066-4.424c.393-.344.618-.831.618-1.336 0-.505-.225-.992-.618-1.336L15.816 4.49a2.032 2.032 0 0 0-2.177-.304c-.674.305-1.093.934-1.093 1.64v1.218C6.922 7.537 2.5 12.15 2.5 17.75c0 .81.104 1.646.308 2.486A.997.997 0 0 0 3.78 21Z"/></symbol><symbol viewBox="0 0 16 16" id="star" xmlns="http://www.w3.org/2000/svg"><path fill-rule="evenodd" clip-rule="evenodd" d="M11.708 13.97a.664.664 0 0 1-.309-.075L8 12.119l-3.398 1.776a.665.665 0 0 1-.966-.705l.648-3.752-2.746-2.657a.665.665 0 0 1 .367-1.138l3.8-.552 1.699-3.418c.225-.453.969-.453 1.194 0l1.698 3.418 3.8.552a.665.665 0 0 1 .368 1.138l-2.746 2.657.647 3.752a.667.667 0 0 1-.656.78Z"/></symbol><symbol viewBox="0 0 12 12" id="tag-close" xmlns="http://www.w3.org/2000/svg"><path fill-rule="evenodd" clip-rule="evenodd" d="m7.414 6 4.293-4.293A.999.999 0 1 0 10.293.293L6 4.586 1.707.293A.999.999 0 1 0 .293 1.707L4.586 6 .293 10.293a.999.999 0 1 0 1.414 1.414L6 7.414l4.293 4.293a.997.997 0 0 0 1.414 0 .999.999 0 0 0 0-1.414L7.414 6Z"/></symbol><symbol viewBox="0 0 22 20" id="telegram" xmlns="http://www.w3.org/2000/svg"><path d="m.387 9.648 5.048 1.882 1.956 6.282c.124.404.618.55.945.283l2.814-2.294a.839.839 0 0 1 1.023-.03l5.075 3.682a.594.594 0 0 0 .932-.36l3.717-17.884c.094-.447-.361-.834-.8-.662L.383 8.535c-.511.198-.507.924.005 1.113Zm6.686.88 9.865-6.075c.176-.108.361.129.206.27l-8.138 7.572a1.677 1.677 0 0 0-.524 1.01l-.28 2.053c-.038.275-.42.301-.498.035L6.64 11.646a.998.998 0 0 1 .434-1.117Z"/></symbol><symbol viewBox="0 0 24 24" id="user" xmlns="http://www.w3.org/2000/svg"><path fill-rule="evenodd" clip-rule="evenodd" d="M17.843 12.431a1.945 1.945 0 0 0-2.46.016 5.388 5.388 0 0 1-3.452 1.233 5.395 5.395 0 0 1-3.4-1.192 1.946 1.946 0 0 0-2.461.015C4.121 14.13 3 16.48 3 18.95c0 .504.049 1.018.145 1.528.169.89.963 1.52 1.873 1.52h13.964l.159-.006c.842-.068 1.557-.676 1.714-1.515.096-.506.145-1.02.145-1.527 0-2.512-1.154-4.89-3.157-6.52Zm-5.912 3.249a7.39 7.39 0 0 0 4.691-1.664C18.137 15.268 19 17.064 19 18.951c0 .23-.014.464-.04.698l-.05.35H5.09l-.05-.352a6.098 6.098 0 0 1-.04-.696c0-1.854.838-3.628 2.31-4.878a7.396 7.396 0 0 0 4.62 1.607Z"/><path fill-rule="evenodd" clip-rule="evenodd" d="M17 7A5 5 0 1 0 7 7a5 5 0 0 0 10 0ZM9 7a3 3 0 1 1 6 0 3 3 0 0 1-6 0Z"/></symbol><symbol viewBox="0 0 16 16" id="viber" xmlns="http://www.w3.org/2000/svg"><path d="M8 1.335c-1.071.013-3.374.19-4.662 1.37-.958.948-1.292 2.35-1.331 4.084-.033 1.728-.072 4.973 3.058 5.856v1.346s-.02.538.337.648c.438.14.688-.275 1.105-.72l.778-.879c2.142.178 3.782-.232 3.97-.293.435-.139 2.883-.451 3.283-3.696.41-3.351-.2-5.463-1.301-6.418h-.007c-.332-.306-1.668-1.279-4.652-1.29 0 0-.222-.014-.578-.008Zm.037.942a7.02 7.02 0 0 1 .488.011c2.527.007 3.732.767 4.017 1.023.927.794 1.405 2.697 1.055 5.495-.332 2.713-2.317 2.885-2.685 3.002-.156.05-1.6.406-3.42.289 0 0-1.356 1.634-1.78 2.055-.067.074-.146.095-.196.085-.071-.018-.093-.107-.089-.229l.013-2.233c-2.655-.733-2.498-3.5-2.47-4.946.033-1.446.304-2.628 1.113-3.43 1.088-.982 3.043-1.115 3.953-1.122Zm.2 1.446a.166.166 0 1 0 0 .332 3.136 3.136 0 0 1 2.242.883c.606.588.9 1.378.912 2.411 0 .092.074.167.167.167V7.51a.167.167 0 0 0 .168-.165 3.588 3.588 0 0 0-1.009-2.646c-.66-.645-1.496-.977-2.48-.977Zm-2.198.382a.523.523 0 0 0-.342.067H5.69a2.61 2.61 0 0 0-.637.523 1.003 1.003 0 0 0-.256.525.71.71 0 0 0 .026.302l.01.006c.172.504.396.988.67 1.444a8.48 8.48 0 0 0 1.29 1.762l.015.022.024.017.015.018.017.015c.532.505 1.127.94 1.769 1.295.734.4 1.18.588 1.447.667v.004c.078.024.15.034.221.034.228-.016.444-.109.613-.262a2.53 2.53 0 0 0 .517-.638v-.004c.128-.241.085-.469-.1-.623-.37-.323-.77-.61-1.195-.857-.285-.155-.574-.061-.69.095l-.25.315c-.129.156-.361.134-.361.134l-.007.004C7.093 8.527 6.63 6.772 6.63 6.772s-.022-.239.139-.36l.312-.252c.15-.122.254-.41.094-.695a7.498 7.498 0 0 0-.856-1.194.475.475 0 0 0-.28-.167Zm2.486.495c-.221 0-.221.334.003.334A2.098 2.098 0 0 1 10 5.572 1.94 1.94 0 0 1 10.5 7a.168.168 0 0 0 .167.165l.007.009a.169.169 0 0 0 .167-.167c.015-.662-.191-1.218-.595-1.663C9.84 4.9 9.273 4.65 8.549 4.6h-.024Zm.274.898c-.228-.006-.236.335-.01.341.55.029.816.306.851.877a.166.166 0 0 0 .165.163h.007a.168.168 0 0 0 .16-.178c-.039-.744-.445-1.164-1.166-1.202H8.8Z"/></symbol><symbol viewBox="0 0 22 13" id="vk" xmlns="http://www.w3.org/2000/svg"><path fill-rule="evenodd" clip-rule="evenodd" d="M12.06 12.245s.39-.042.588-.253c.184-.192.176-.557.176-.557s-.022-1.699.781-1.95c.792-.247 1.81 1.643 2.89 2.371.816.549 1.435.429 1.435.429l2.885-.04s1.508-.091.793-1.255c-.059-.096-.417-.864-2.144-2.436-1.811-1.648-1.568-1.381.611-4.232 1.327-1.736 1.856-2.796 1.692-3.248-.159-.434-1.135-.32-1.135-.32l-3.248.02s-.24-.032-.419.072c-.174.103-.288.343-.288.343s-.512 1.344-1.198 2.486c-1.447 2.41-2.024 2.538-2.261 2.387-.55-.348-.413-1.401-.413-2.148 0-2.336.362-3.312-.702-3.564-.352-.083-.613-.137-1.516-.147-1.16-.013-2.14.003-2.696.27-.368.177-.656.573-.48.597.215.028.701.128.959.472.333.445.32 1.444.32 1.444s.192 2.748-.447 3.09c-.436.234-1.036-.244-2.326-2.431a20.16 20.16 0 0 1-1.16-2.357s-.096-.232-.269-.357C4.28.781 3.991.734 3.991.734L.904.754S.44.766.271.964c-.15.177-.012.54-.012.54S2.675 7.053 5.411 9.85c2.51 2.563 5.357 2.395 5.357 2.395h1.291Z"/></symbol><symbol viewBox="0 0 16 16" id="whatsapp" xmlns="http://www.w3.org/2000/svg"><path fill-rule="evenodd" clip-rule="evenodd" d="M12.269 3.755A5.947 5.947 0 0 0 8.035 2 5.994 5.994 0 0 0 2.05 7.985a5.98 5.98 0 0 0 .799 2.992L2 14.077l3.173-.832c.877.477 1.86.728 2.86.728h.002a5.993 5.993 0 0 0 5.533-8.276 5.953 5.953 0 0 0-1.3-1.942Zm-4.234 9.208h-.002c-.89 0-1.765-.24-2.532-.694l-.181-.108-1.883.494.502-1.835-.118-.188a4.965 4.965 0 0 1-.76-2.647 4.982 4.982 0 0 1 6.88-4.597c.604.25 1.152.618 1.613 1.081a4.946 4.946 0 0 1 1.455 3.52 4.982 4.982 0 0 1-4.974 4.974Zm2.729-3.726c-.15-.075-.885-.436-1.022-.486-.137-.05-.236-.075-.336.074-.1.15-.387.486-.474.586-.087.1-.175.112-.324.038-.15-.075-.631-.233-1.203-.742a4.505 4.505 0 0 1-.832-1.036c-.087-.15-.009-.231.066-.306.068-.066.15-.174.224-.262.075-.087.1-.149.15-.249.05-.1.025-.187-.013-.262-.037-.075-.337-.811-.461-1.11-.121-.29-.244-.252-.336-.256a6.418 6.418 0 0 0-.286-.005.55.55 0 0 0-.4.186c-.137.15-.523.512-.523 1.248s.536 1.447.61 1.547c.075.1 1.055 1.61 2.555 2.258.358.154.636.246.853.315.358.114.684.098.942.06.287-.043.885-.362 1.01-.711.124-.35.124-.649.087-.711-.038-.063-.138-.101-.287-.176Z"/></symbol><symbol viewBox="0 0 20 15" id="youtube" xmlns="http://www.w3.org/2000/svg"><path fill-rule="evenodd" clip-rule="evenodd" d="M18.645 1.829c.576.595.763 1.947.763 1.947s.192 1.589.192 3.176V8.44c0 1.589-.192 3.176-.192 3.176s-.187 1.352-.763 1.947c-.657.704-1.387.778-1.8.82l-.123.012C14.034 14.594 10 14.6 10 14.6s-4.992-.048-6.528-.197a2.69 2.69 0 0 0-.26-.037c-.487-.06-1.25-.153-1.856-.803-.576-.595-.764-1.947-.764-1.947S.4 10.029.4 8.44V6.954c0-1.588.192-3.177.192-3.177s.188-1.352.764-1.947c.659-.704 1.388-.776 1.801-.816L3.28.998C5.967.8 9.996.8 9.996.8h.01s4.028 0 6.716.198l.122.013c.412.042 1.142.112 1.801.818ZM8.015 4.733v5.512l5.189-2.747-5.19-2.765Z"/></symbol></svg>