<svg width="24" height="24" viewBox="0 0 24 24" fill="none" xmlns="http://www.w3.org/2000/svg">
<path d="M11.3072 20.1347L11.3071 20.135C11.2757 20.4407 11.2496 20.6929 11.2158 20.9063C11.1817 21.1216 11.1437 21.2695 11.0991 21.3721C11.0574 21.4683 11.0188 21.5044 10.9892 21.523C10.9568 21.5434 10.8887 21.5717 10.74 21.5717C10.2741 21.5717 9.71019 21.3653 9.26347 20.986C8.82264 20.6117 8.52858 20.0986 8.52858 19.5C8.52858 18.7755 8.62616 17.6708 8.72631 16.7321C8.77604 16.266 8.82579 15.8463 8.86311 15.5431C8.88177 15.3916 8.8973 15.2693 8.90816 15.1849L8.92073 15.0881L8.92402 15.0632L8.92485 15.0569L8.92505 15.0554L8.9251 15.055L8.92511 15.055L8.98981 14.5697H8.5003H4.31487C3.62694 14.5697 3.17713 14.3542 2.89261 14.0292C2.59999 13.695 2.42915 13.1844 2.42915 12.4997C2.42915 11.9394 2.53751 11.6685 2.67087 11.3351L2.67255 11.3309L2.67279 11.3303L2.67477 11.3254C2.75337 11.1298 2.84553 10.9004 2.91722 10.5993L2.91751 10.598C2.99274 10.2778 2.96783 9.94544 2.94701 9.66767C2.94628 9.65787 2.94555 9.64813 2.94483 9.63847L2.94482 9.63835C2.90798 9.14575 2.87964 8.69922 3.13292 8.19166C3.36156 7.73597 3.66646 7.43277 3.97737 7.12701C3.98713 7.11743 3.99698 7.10777 4.00691 7.09805C4.26302 6.84704 4.56978 6.54639 4.71684 6.14865L4.71687 6.14866L4.71847 6.14416L4.7306 6.1102C4.82724 5.84819 4.9818 5.43841 5.33643 5.08697C5.67918 4.74731 6.24426 4.42888 7.22744 4.42888H10.9997C12.6273 4.42888 13.4869 4.62495 13.9525 4.99282C14.3804 5.3309 14.5693 5.89787 14.5672 6.99949V7.00031V12.696C13.9073 13.1738 13.2882 14.0081 12.7886 14.9175C12.2291 15.936 11.7817 17.1181 11.5792 18.1692C11.4315 18.9352 11.3638 19.5884 11.3094 20.1135L11.3072 20.1347ZM19.5637 12.8265L19.5637 12.8266C19.539 13.0134 19.4532 13.187 19.3199 13.3202L19.6215 13.622L19.3199 13.3202C19.1865 13.4535 19.0129 13.5391 18.826 13.5637L18.8251 13.5638C18.7774 13.5702 18.7134 13.5712 18.4997 13.5712C18.2869 13.5712 18.2229 13.5702 18.1752 13.5638L18.174 13.5637C17.9869 13.5391 17.8132 13.4535 17.6797 13.3201C17.5462 13.1867 17.4604 13.013 17.4358 12.8259L17.4356 12.8251C17.4293 12.7775 17.4283 12.7134 17.4283 12.4997V5.50031C17.4283 5.28662 17.4293 5.22259 17.4356 5.17495L17.4358 5.1738C17.4604 4.98661 17.5461 4.81277 17.6796 4.67928C17.8126 4.5462 17.9858 4.46063 18.1723 4.43575C18.2225 4.42968 18.2899 4.42888 18.4997 4.42888C18.7131 4.42888 18.7776 4.42981 18.8265 4.4363L18.8265 4.4363C19.0134 4.46108 19.187 4.54679 19.3202 4.68015C19.4535 4.81352 19.5391 4.9871 19.5637 5.17402L19.5638 5.17495C19.5702 5.22259 19.5712 5.28662 19.5712 5.50031V12.4997C19.5712 12.7131 19.5702 12.7776 19.5637 12.8265Z" fill="#8F918C" stroke="#8F918C" stroke-width="0.857143"/>
</svg>
