<svg width="25" height="24" viewBox="0 0 25 24" fill="none" xmlns="http://www.w3.org/2000/svg">
<path fill-rule="evenodd" clip-rule="evenodd" d="M16 4C16 3.44772 15.5523 3 15 3C14.4477 3 14 3.44772 14 4V6V8C14 8.55228 14.4477 9 15 9C15.5523 9 16 8.55228 16 8V7H20C20.5523 7 21 6.55228 21 6C21 5.44772 20.5523 5 20 5H16V4ZM4.5 5C3.94772 5 3.5 5.44772 3.5 6C3.5 6.55228 3.94772 7 4.5 7H11C11.5523 7 12 6.55228 12 6C12 5.44772 11.5523 5 11 5H4.5ZM11 12C11 11.4477 11.4477 11 12 11H20C20.5523 11 21 11.4477 21 12C21 12.5523 20.5523 13 20 13H12C11.4477 13 11 12.5523 11 12ZM3.5 18C3.5 17.4477 3.94772 17 4.5 17H8C8.55228 17 9 17.4477 9 18C9 18.5523 8.55228 19 8 19H4.5C3.94772 19 3.5 18.5523 3.5 18ZM4.5 11C3.94772 11 3.5 11.4477 3.5 12C3.5 12.5523 3.94772 13 4.5 13H6.99878V14C6.99878 14.5523 7.44649 15 7.99878 15C8.55106 15 8.99878 14.5523 8.99878 14V10C8.99878 9.44772 8.55106 9 7.99878 9C7.44649 9 6.99878 9.44772 6.99878 10V11H4.5ZM12.9988 20V19H20C20.5523 19 21 18.5523 21 18C21 17.4477 20.5523 17 20 17H12.9988V16C12.9988 15.4477 12.5511 15 11.9988 15C11.4465 15 10.9988 15.4477 10.9988 16V20C10.9988 20.5523 11.4465 21 11.9988 21C12.5511 21 12.9988 20.5523 12.9988 20Z" fill="#2A2E28"/>
</svg>
