<svg width="24" height="24" viewBox="0 0 24 24" fill="none" xmlns="http://www.w3.org/2000/svg">
<path d="M12.6929 3.86534L12.6929 3.86497C12.7243 3.5593 12.7504 3.30714 12.7842 3.09369C12.8183 2.87844 12.8563 2.73048 12.9009 2.62787C12.9426 2.53175 12.9813 2.49555 13.0108 2.47696C13.0432 2.45655 13.1113 2.42827 13.26 2.42827C13.726 2.42827 14.2898 2.63474 14.7365 3.01403C15.1774 3.38833 15.4714 3.90137 15.4714 4.49998C15.4714 5.2245 15.3739 6.32919 15.2737 7.26787C15.224 7.73397 15.1742 8.15368 15.1369 8.45688C15.1182 8.60843 15.1027 8.73075 15.0919 8.81506L15.0793 8.91188L15.076 8.93683L15.0752 8.94308L15.075 8.94461L15.0749 8.94496L15.0749 8.94505L15.0102 9.43027H15.4997H19.6851C20.3731 9.43027 20.8229 9.6458 21.1074 9.97079C21.4 10.305 21.5709 10.8156 21.5709 11.5003C21.5709 12.0606 21.4625 12.3315 21.3291 12.6649L21.3275 12.6691L21.3272 12.6697L21.3252 12.6746C21.2466 12.8702 21.1545 13.0996 21.0828 13.4007L21.0825 13.402C21.0073 13.7222 21.0322 14.0546 21.053 14.3323C21.0537 14.3421 21.0545 14.3519 21.0552 14.3615L21.0552 14.3617C21.092 14.8543 21.1204 15.3008 20.8671 15.8083C20.6385 16.264 20.3336 16.5672 20.0226 16.873C20.0129 16.8826 20.003 16.8922 19.9931 16.902C19.737 17.153 19.4302 17.4536 19.2832 17.8514L19.2831 17.8513L19.2815 17.8558L19.2694 17.8898C19.1728 18.1518 19.0182 18.5616 18.6636 18.913C18.3208 19.2527 17.7558 19.5711 16.7726 19.5711H13.0003C11.3727 19.5711 10.5131 19.3751 10.0475 19.0072C9.61966 18.6691 9.43076 18.1021 9.43286 17.0005V16.9997V11.304C10.0927 10.8262 10.7118 9.99186 11.2114 9.08248C11.771 8.06397 12.2183 6.88195 12.4208 5.83076C12.5685 5.06478 12.6362 4.41156 12.6907 3.88651L12.6929 3.86534ZM4.43628 11.1735L4.43629 11.1734C4.46107 10.9866 4.54677 10.813 4.68014 10.6798L4.37856 10.378L4.68014 10.6798C4.8135 10.5465 4.98708 10.4609 5.174 10.4363L5.17494 10.4362C5.22257 10.4298 5.2866 10.4288 5.50029 10.4288C5.71308 10.4288 5.77714 10.4298 5.82479 10.4362L5.82597 10.4363C6.01308 10.4609 6.18685 10.5465 6.32034 10.6799C6.45383 10.8133 6.53957 10.987 6.56426 11.1741L6.56437 11.1749C6.57076 11.2225 6.57172 11.2866 6.57172 11.5003V18.4997C6.57172 18.7134 6.57076 18.7774 6.56437 18.8251L6.56422 18.8262C6.53965 19.0134 6.45396 19.1872 6.32046 19.3207C6.18738 19.4538 6.01422 19.5394 5.82771 19.5642C5.77755 19.5703 5.71009 19.5711 5.50029 19.5711C5.28693 19.5711 5.22239 19.5702 5.1735 19.5637L5.17347 19.5637C4.98657 19.5389 4.81306 19.4532 4.6798 19.3198C4.54654 19.1865 4.46096 19.0129 4.43633 18.826L4.43621 18.8251C4.42982 18.7774 4.42886 18.7134 4.42886 18.4997V11.5003C4.42886 11.2869 4.4298 11.2224 4.43628 11.1735Z" fill="#95BF3D" stroke="#95BF3D" stroke-width="0.857143"/>
</svg>
