<svg width="12" height="21" viewBox="0 0 12 21" fill="none" xmlns="http://www.w3.org/2000/svg">
<path fill-rule="evenodd" clip-rule="evenodd" d="M8.16315 14.9346C9.25115 14.6946 10.3007 14.2786 11.2671 13.693C11.4397 13.5916 11.5899 13.4562 11.7087 13.2951C11.8275 13.134 11.9124 12.9504 11.9583 12.7556C12.0042 12.5608 12.0102 12.3586 11.9758 12.1614C11.9414 11.9642 11.8675 11.776 11.7583 11.6082C11.5287 11.2661 11.176 11.0258 10.7737 10.9373C10.3713 10.8488 9.95032 10.9189 9.59835 11.133C8.51114 11.7854 7.26706 12.13 5.99915 12.13C4.73123 12.13 3.48716 11.7854 2.39995 11.133C2.04808 10.9185 1.62696 10.8482 1.22449 10.9367C0.822021 11.0253 0.469297 11.2658 0.239947 11.6082C0.130834 11.776 0.0568606 11.9642 0.022491 12.1614C-0.0118787 12.3586 -0.00593178 12.5608 0.0399745 12.7556C0.0858808 12.9504 0.170794 13.134 0.289587 13.2951C0.40838 13.4562 0.558589 13.5916 0.731147 13.693C1.69755 14.2786 2.74715 14.6946 3.83515 14.9346L0.846348 17.8194C0.701256 17.9572 0.58572 18.1231 0.50677 18.307C0.42782 18.4909 0.387106 18.6889 0.387106 18.889C0.387106 19.0891 0.42782 19.2871 0.50677 19.471C0.58572 19.6549 0.701256 19.8208 0.846348 19.9586C1.1447 20.244 1.54227 20.4024 1.95515 20.4002C2.35515 20.4002 2.75675 20.253 3.06395 19.9586L5.99995 17.1234L8.93755 19.9586C9.23599 20.2431 9.63246 20.4017 10.0447 20.4017C10.457 20.4017 10.8535 20.2431 11.1519 19.9586C11.2972 19.8209 11.413 19.6551 11.492 19.4712C11.5711 19.2873 11.6119 19.0892 11.6119 18.889C11.6119 18.6888 11.5711 18.4908 11.492 18.3069C11.413 18.123 11.2972 17.9571 11.1519 17.8194L8.16315 14.9346ZM11.3327 5.56181C11.3327 8.40661 8.93595 10.7218 5.98715 10.7218C3.03835 10.7218 0.639947 8.40661 0.639947 5.56181C0.639947 2.71381 3.03995 0.400208 5.98715 0.400208C8.93435 0.400208 11.3327 2.71541 11.3327 5.56181V5.56181ZM8.19675 5.56181C8.19675 4.38261 7.20475 3.42581 5.98235 3.42581C4.76315 3.42581 3.76955 4.38261 3.76955 5.56181C3.76955 6.73941 4.76155 7.69781 5.98235 7.69781C7.20315 7.69781 8.19675 6.73781 8.19675 5.56181V5.56181Z" fill="white"/>
</svg>
