<svg width="24" height="24" viewBox="0 0 24 24" fill="none" xmlns="http://www.w3.org/2000/svg">
<path fill-rule="evenodd" clip-rule="evenodd" d="M19.2003 16.8603C19.2003 16.7604 19.194 16.6614 19.1814 16.5651L15.0223 15.6102C14.9404 15.7686 14.8504 15.9414 14.7658 16.1007C14.3562 16.8837 14.0628 17.4526 13.3014 17.1474C10.3259 16.1034 7.89666 13.6742 6.83911 10.6618C6.5178 9.95613 7.12982 9.63572 7.90566 9.2298C8.06317 9.1479 8.23327 9.05879 8.38898 8.97689L7.43494 4.81871C7.33503 4.8052 7.23783 4.7998 7.13972 4.7998C5.84997 4.7998 4.79962 5.84925 4.79962 7.13901C4.79962 13.7894 10.2098 19.2004 16.8602 19.2004C18.1508 19.2004 19.2003 18.151 19.2003 16.8603ZM20.9432 16.1748C20.981 16.398 21.0008 16.6275 21.0008 16.8606C21.0008 19.1431 19.144 21.0008 16.8606 21.0008C9.21837 21.0008 3 14.7824 3 7.13928C3 4.85678 4.85678 3 7.14018 3C7.37419 3 7.6055 3.0198 7.82961 3.0585C8.04832 3.0936 8.26883 3.14941 8.48214 3.22321C8.77555 3.32491 8.99516 3.56973 9.06447 3.87214L10.2966 9.23997C10.365 9.53519 10.2795 9.8457 10.0689 10.0644C9.94651 10.1931 9.94381 10.1958 8.82776 10.779C9.7314 12.7366 11.302 14.3009 13.2191 15.1748C13.805 14.0579 13.8077 14.0543 13.9355 13.931C14.1551 13.7213 14.4638 13.6376 14.7599 13.7033L20.1278 14.9354C20.4302 15.0047 20.6759 15.2252 20.7767 15.5178C20.8505 15.7293 20.9072 15.9498 20.9432 16.1748ZM12.9 4.80008C16.3732 4.80008 19.2003 7.6262 19.2003 11.1004C19.2003 11.5972 19.6026 12.0004 20.1003 12.0004C20.598 12.0004 21.0003 11.5972 21.0003 11.1004C21.0003 6.63346 17.3669 3 12.9 3C12.4032 3 12 3.40232 12 3.90004C12 4.39686 12.4032 4.80008 12.9 4.80008ZM11.9999 7.50063C11.9999 7.0029 12.4032 6.60059 12.9 6.60059C15.3814 6.60059 17.4002 8.61937 17.4002 11.1008C17.4002 11.5976 16.9979 12.0008 16.5001 12.0008C16.0024 12.0008 15.6001 11.5976 15.6001 11.1008C15.6001 9.61122 14.3886 8.40067 12.9 8.40067C12.4032 8.40067 11.9999 7.99745 11.9999 7.50063Z" fill="#2A2E28"/>
</svg>
