<svg width="24" height="24" viewBox="0 0 24 24" fill="none" xmlns="http://www.w3.org/2000/svg">
<path fill-rule="evenodd" clip-rule="evenodd" d="M13.5461 11.5C9.98312 11.5 6.76912 13.134 4.73612 15.759C5.67112 11.89 9.26612 8.99998 13.5461 8.99998C14.0991 8.99998 14.5461 8.55298 14.5461 7.99998V6.07698L19.3701 10.251L14.5461 14.463V12.5C14.5461 11.947 14.0991 11.5 13.5461 11.5ZM3.77912 21C4.24012 21 4.64212 20.685 4.75112 20.237C5.64112 16.588 8.77212 13.952 12.5461 13.553V14.674C12.5461 15.38 12.9651 16.009 13.6391 16.314C14.3701 16.647 15.2231 16.527 15.8161 16.01L20.8821 11.586C21.2751 11.242 21.5001 10.755 21.5001 10.25C21.5001 9.74498 21.2751 9.25798 20.8821 8.91398L15.8161 4.48998C15.2231 3.97298 14.3701 3.85298 13.6391 4.18598C12.9651 4.49098 12.5461 5.11998 12.5461 5.82598V7.04398C6.92212 7.53698 2.50012 12.15 2.50012 17.75C2.50012 18.56 2.60412 19.396 2.80812 20.236C2.91612 20.685 3.31712 21 3.77912 21Z" fill="#95BF3D"/>
</svg>
