<svg width="16" height="16" viewBox="0 0 16 16" fill="none" xmlns="http://www.w3.org/2000/svg">
<path fill-rule="evenodd" clip-rule="evenodd" d="M11.7079 13.97C11.6019 13.97 11.4959 13.9453 11.3992 13.8946L7.99986 12.1186L4.60053 13.8946C4.3752 14.012 4.1032 13.9913 3.89986 13.842C3.69453 13.6926 3.59253 13.44 3.63519 13.19L4.2832 9.43798L1.53653 6.78131C1.35319 6.60465 1.28786 6.33931 1.36586 6.09731C1.44319 5.85531 1.65253 5.67931 1.90386 5.64265L5.70453 5.09065L7.40253 1.67331C7.62786 1.21998 8.37186 1.21998 8.5972 1.67331L10.2952 5.09065L14.0959 5.64265C14.3472 5.67931 14.5565 5.85531 14.6339 6.09731C14.7119 6.33931 14.6465 6.60465 14.4632 6.78131L11.7165 9.43798L12.3645 13.19C12.4072 13.44 12.3052 13.6926 12.0999 13.842C11.9845 13.9273 11.8465 13.97 11.7079 13.97Z" fill="#CCCECA"/>
</svg>
