<svg width="22" height="20" viewBox="0 0 22 20" fill="none" xmlns="http://www.w3.org/2000/svg">
<path d="M0.386628 9.64779L5.43546 11.5298L7.39053 17.8118C7.51514 18.2158 8.00928 18.3618 8.33585 18.0954L11.1503 15.8009C11.4468 15.5603 11.8636 15.5474 12.173 15.7708L17.2476 19.4533C17.5956 19.7068 18.094 19.5177 18.18 19.0923L21.8968 1.20872C21.9913 0.76185 21.5358 0.375131 21.0976 0.547006L0.382331 8.5349C-0.128997 8.73255 -0.1247 9.45872 0.386628 9.64779ZM7.07257 10.5286L16.9382 4.45287C17.1144 4.34544 17.2991 4.58177 17.1444 4.72357L9.00616 12.2947C8.71827 12.5611 8.5335 12.9177 8.48194 13.3044L8.20264 15.3583C8.16397 15.6333 7.78155 15.6591 7.70421 15.3927L6.63858 11.6458C6.51827 11.2204 6.69444 10.765 7.07257 10.5286Z" fill="white"/>
</svg>
