<svg width="24" height="24" viewBox="0 0 24 24" fill="none" xmlns="http://www.w3.org/2000/svg">
<path fill-rule="evenodd" clip-rule="evenodd" d="M17.8431 12.431C17.1282 11.8506 16.0879 11.8569 15.3822 12.4466C14.4319 13.2403 13.2052 13.6798 11.9309 13.6798C10.6807 13.6798 9.47203 13.2553 8.53033 12.4883C7.81433 11.908 6.77654 11.9143 6.06997 12.5026C4.12133 14.1312 3 16.4814 3 18.9514C3 19.4549 3.04905 19.9686 3.14517 20.4789C3.31353 21.3695 4.10849 21.9999 5.01829 21.9999H18.9817L19.141 21.9934C19.9834 21.9248 20.6977 21.3166 20.855 20.4782C20.9511 19.9716 21 19.4573 21 18.9514C21 16.4393 19.8459 14.0615 17.8431 12.431ZM11.9309 15.6797C13.6526 15.6797 15.3163 15.0903 16.6223 14.0164C18.1368 15.2685 19 17.0638 19 18.9514C19 19.1813 18.9864 19.4146 18.9595 19.6486L18.9091 19.9999H5.09104L5.04059 19.6473C5.01362 19.4129 5 19.1799 5 18.9514C5 17.0971 5.83848 15.3226 7.30966 14.0733C8.60234 15.1104 10.2411 15.6797 11.9309 15.6797Z" fill="#2A2E28"/>
<path fill-rule="evenodd" clip-rule="evenodd" d="M17 7C17 4.23858 14.7614 2 12 2C9.23858 2 7 4.23858 7 7C7 9.76142 9.23858 12 12 12C14.7614 12 17 9.76142 17 7ZM9 7C9 5.34315 10.3431 4 12 4C13.6569 4 15 5.34315 15 7C15 8.65685 13.6569 10 12 10C10.3431 10 9 8.65685 9 7Z" fill="#2A2E28"/>
</svg>
