<svg width="22" height="13" viewBox="0 0 22 13" fill="none" xmlns="http://www.w3.org/2000/svg">
<path fill-rule="evenodd" clip-rule="evenodd" d="M12.0594 12.2448C12.0594 12.2448 12.4498 12.2032 12.6482 11.992C12.8322 11.8 12.8242 11.4352 12.8242 11.4352C12.8242 11.4352 12.8018 9.73598 13.605 9.48478C14.397 9.23838 15.4146 11.128 16.4946 11.856C17.3106 12.4048 17.9298 12.2848 17.9298 12.2848L20.8146 12.2448C20.8146 12.2448 22.3234 12.1536 21.6082 10.9904C21.549 10.8944 21.1906 10.1264 19.4642 8.55358C17.653 6.90558 17.8962 7.17278 20.0754 4.32158C21.4018 2.58558 21.9314 1.52638 21.7666 1.07358C21.6082 0.639977 20.6322 0.753578 20.6322 0.753578L17.3842 0.774379C17.3842 0.774379 17.1442 0.742379 16.965 0.846379C16.7906 0.948779 16.677 1.18878 16.677 1.18878C16.677 1.18878 16.165 2.53278 15.4786 3.67518C14.0322 6.08478 13.4546 6.21278 13.2178 6.06238C12.6674 5.71358 12.805 4.66078 12.805 3.91358C12.805 1.57758 13.1666 0.601578 12.1026 0.350378C11.7506 0.267178 11.4898 0.212778 10.5874 0.203178C9.42736 0.190378 8.44656 0.206377 7.89136 0.473577C7.52336 0.649577 7.23536 1.04638 7.41136 1.07038C7.62576 1.09758 8.11216 1.19838 8.36976 1.54238C8.70256 1.98718 8.68976 2.98558 8.68976 2.98558C8.68976 2.98558 8.88176 5.73438 8.24336 6.07678C7.80656 6.31038 7.20656 5.83198 5.91696 3.64478C5.47947 2.88523 5.09198 2.09796 4.75696 1.28798C4.75696 1.28798 4.66096 1.05598 4.48816 0.931178C4.28016 0.780778 3.99056 0.734378 3.99056 0.734378L0.90416 0.753578C0.90416 0.753578 0.440161 0.766378 0.270561 0.964778C0.120161 1.14078 0.259361 1.50398 0.259361 1.50398C0.259361 1.50398 2.67536 7.05278 5.41136 9.84958C7.92016 12.4128 10.7682 12.2448 10.7682 12.2448H12.0594Z" fill="white"/>
</svg>
