<svg width="20" height="15" viewBox="0 0 20 15" fill="none" xmlns="http://www.w3.org/2000/svg">
<path fill-rule="evenodd" clip-rule="evenodd" d="M18.6452 1.8287C19.2212 2.4239 19.4084 3.7759 19.4084 3.7759C19.4084 3.7759 19.6004 5.3647 19.6004 6.9519V8.4399C19.6004 10.0287 19.4084 11.6159 19.4084 11.6159C19.4084 11.6159 19.2212 12.9679 18.6452 13.5631C17.9876 14.2671 17.258 14.3407 16.8452 14.3823L16.722 14.3951C14.034 14.5935 10.0004 14.5999 10.0004 14.5999C10.0004 14.5999 5.00839 14.5519 3.47239 14.4031C3.39879 14.3871 3.31239 14.3775 3.21159 14.3663C2.72519 14.3055 1.96199 14.2127 1.35559 13.5631C0.779591 12.9679 0.59239 11.6159 0.59239 11.6159C0.59239 11.6159 0.400391 10.0287 0.400391 8.4415V6.9535C0.400391 5.3647 0.59239 3.7759 0.59239 3.7759C0.59239 3.7759 0.779591 2.4239 1.35559 1.8287C2.01479 1.1247 2.74439 1.0527 3.15719 1.0127L3.27879 0.998296C5.96679 0.799896 9.99559 0.799896 9.99559 0.799896H10.0052C10.0052 0.799896 14.034 0.799896 16.722 0.998296L16.8436 1.0111C17.2564 1.0527 17.986 1.1231 18.6452 1.8287ZM8.01479 4.7327V10.2447L13.2036 7.4975L8.01479 4.7327Z" fill="white"/>
</svg>
